<mxfile host="app.diagrams.net" modified="2024-03-18T13:29:33.518Z" agent="Mozilla/5.0 (X11; Linux x86_64; rv:123.0) Gecko/20100101 Firefox/123.0" version="24.0.7" etag="dRfsvH5AiPQ15o7CUkme" type="github">
  <diagram name="Page-1" id="RZQbQ9jETj5KuSIeGiIg">
    <mxGraphModel>
      <root>
        <mxCell id="0" />
        <mxCell id="1" parent="0" />
      </root>
    </mxGraphModel>
  </diagram>
</mxfile>
